HIERARCHY
ROOT Hips
{
    OFFSET 0.000000 0.000000 0.000000
    CHANNELS 6 Xposition Yposition Zposition Zrotation Xrotation Yrotation
    JOINT Spine
    {
        OFFSET -0.000000 7.315584 0.000000
        CHANNELS 3 Zrotation Xrotation Yrotation
        JOINT Spine1
        {
            OFFSET -0.000000 21.742830 0.000000
            CHANNELS 3 Zrotation Xrotation Yrotation
            JOINT Neck
            {
                OFFSET -0.000000 21.653538 1.968503
                CHANNELS 3 Zrotation Xrotation Yrotation
                JOINT Head
                {
                    OFFSET -0.000000 12.490022 -1.784289
                    CHANNELS 3 Zrotation Xrotation Yrotation
                    End Site
                    {
                        OFFSET -0.000000 22.303610 0.000000
                    }
                }
            }
            JOINT LeftShoulder
            {
                OFFSET 3.565460 21.440739 -0.045508
                CHANNELS 3 Zrotation Xrotation Yrotation
                JOINT LeftArm
                {
                    OFFSET 5.865323 0.000000 0.000000
                    CHANNELS 3 Zrotation Xrotation Yrotation
                    JOINT LeftForeArm
                    {
                        OFFSET 30.083149 0.000000 0.000000
                        CHANNELS 3 Zrotation Xrotation Yrotation
                        JOINT LeftHand
                        {
                            OFFSET 21.313328 0.000000 0.000000
                            CHANNELS 3 Zrotation Xrotation Yrotation
                            End Site
                            {
                                OFFSET 13.382167 0.000000 0.000000
                            }
                        }
                    }
                }
            }
            JOINT RightShoulder
            {
                OFFSET -3.556053 21.440739 -0.045508
                CHANNELS 3 Zrotation Xrotation Yrotation
                JOINT RightArm
                {
                    OFFSET -5.865323 0.000000 0.000000
                    CHANNELS 3 Zrotation Xrotation Yrotation
                    JOINT RightForeArm
                    {
                        OFFSET -30.083149 0.000000 0.000000
                        CHANNELS 3 Zrotation Xrotation Yrotation
                        JOINT RightHand
                        {
                            OFFSET -21.313328 0.000000 0.000000
                            CHANNELS 3 Zrotation Xrotation Yrotation
                            End Site
                            {
                                OFFSET -13.382167 0.000000 0.000000
                            }
                        }
                    }
                }
            }
        }
    }
    JOINT LeftUpLeg
    {
        OFFSET 8.921444 0.000000 0.000000
        CHANNELS 3 Zrotation Xrotation Yrotation
        JOINT LeftLeg
        {
            OFFSET -0.000000 -39.632927 0.000000
            CHANNELS 3 Zrotation Xrotation Yrotation
            JOINT LeftFoot
            {
                OFFSET -0.000000 -38.058365 0.000000
                CHANNELS 3 Zrotation Xrotation Yrotation
                JOINT LeftToeBase
                {
                    OFFSET -0.000000 -5.798938 13.382167
                    CHANNELS 3 Zrotation Xrotation Yrotation
                    End Site
                    {
                        OFFSET -0.000000 0.000000 3.568577
                    }
                }
            }
        }
    }
    JOINT RightUpLeg
    {
        OFFSET -8.921444 0.000000 0.000000
        CHANNELS 3 Zrotation Xrotation Yrotation
        JOINT RightLeg
        {
            OFFSET -0.000000 -39.632927 0.000000
            CHANNELS 3 Zrotation Xrotation Yrotation
            JOINT RightFoot
            {
                OFFSET -0.000000 -38.058365 0.000000
                CHANNELS 3 Zrotation Xrotation Yrotation
                JOINT RightToeBase
                {
                    OFFSET -0.000000 -5.798938 13.382167
                    CHANNELS 3 Zrotation Xrotation Yrotation
                    End Site
                    {
                        OFFSET -0.000000 0.000000 3.568577
                    }
                }
            }
        }
    }
}
MOTION
Frames:    11
Frame Time:    0.004000
-18.413414    78.037979    -204.220917    -0.084057    -0.575294    10.020988    -0.501228    -9.019895    0.503588    -0.866369    0.218882    0.544791    -1.437920    18.650064    -0.351252    -0.162006    0.133771    -0.421469    12.201040    -1.385768    -7.277271    -20.284559    0.592532    -0.706464    0.482049    -0.512394    1.567343    -2.011997    -0.530030    0.627959    -10.521247    0.809438    -4.437134    15.874296    -0.479500    2.146646    -0.883252    -0.590558    -0.667449    2.258443    -0.587801    0.403544    -2.249122    2.901117    -0.019103    -1.534329    1.393433    -0.102989    3.952803    -3.739879    2.247627    0.000000    0.000000    0.000000    -0.705738    4.709873    -0.556966    2.963838    0.807044    0.082670    -2.182861    -4.857625    -10.766771    0.000000    0.000000    0.000000    
-18.412075    78.038795    -204.221863    -0.077913    -0.574940    10.019651    -0.521253    -9.027554    0.507799    -0.775471    0.300550    0.551041    -1.590946    18.462553    -0.349362    -0.111167    0.250190    -0.412623    12.123264    -1.441681    -7.157859    -20.253017    0.644120    -0.789364    0.455756    -0.525210    1.527398    -1.982948    -0.542743    0.653755    -10.721713    0.823835    -4.610326    15.992119    -0.479888    2.293187    -0.878083    -0.611433    -0.644124    2.245484    -0.608408    0.406723    -2.255566    2.900019    -0.018233    -1.531811    1.400154    -0.110599    3.954097    -3.735521    2.243725    0.000000    0.000000    0.000000    -0.710827    4.709926    -0.563208    2.957947    0.807794    0.052411    -2.148718    -4.860613    -10.718746    0.000000    0.000000    0.000000    
-18.413670    78.039207    -204.223557    -0.075813    -0.572719    10.024918    -0.509100    -9.014453    0.501912    -0.865530    0.213130    0.543640    -1.443400    18.652676    -0.344261    -0.167747    0.129481    -0.415032    12.198740    -1.390849    -7.290119    -20.270668    0.590923    -0.691789    0.468128    -0.512762    1.570371    -1.948570    -0.530288    0.644377    -10.534459    0.784078    -4.429317    15.872217    -0.453829    2.135375    -0.901283    -0.609064    -0.655812    2.400546    -0.605400    0.425611    -2.258106    2.898981    -0.040509    -1.528104    1.392392    -0.120958    3.931298    -3.720001    2.262099    0.000000    0.000000    0.000000    -0.714276    4.704717    -0.580526    2.963077    0.818101    0.105084    -2.686758    -4.911513    -10.754718    0.000000    0.000000    0.000000    
-18.414497    78.040169    -204.226471    -0.072580    -0.563379    10.024892    -0.534876    -9.024645    0.504147    -0.768963    0.280132    0.548240    -1.611139    18.491343    -0.338914    -0.079577    0.222982    -0.398373    12.130274    -1.452003    -7.164121    -20.254194    0.645188    -0.782269    0.415302    -0.447695    1.480066    -1.167977    -0.464467    1.109247    -10.722639    0.814182    -4.588609    15.977317    -0.475295    2.273860    -0.899714    -0.614325    -0.633639    2.429979    -0.610214    0.428641    -2.263050    2.887518    -0.030313    -1.528425    1.390517    -0.119533    3.927754    -3.711445    2.249696    0.000000    0.000000    0.000000    -0.720524    4.692512    -0.558646    2.961591    0.815457    0.074036    -2.191091    -4.862166    -10.736945    0.000000    0.000000    0.000000    
-18.414015    78.039360    -204.224396    -0.073072    -0.575721    10.027155    -0.508743    -9.004872    0.501079    -0.865861    0.207875    0.542682    -1.446992    18.639603    -0.338564    -0.180969    0.158145    -0.410772    12.197135    -1.374214    -7.278058    -20.253090    0.569757    -0.707495    0.419663    -0.434823    1.510901    -1.118840    -0.451415    1.117194    -10.533513    0.798529    -4.429765    15.854700    -0.454165    2.143511    -0.894635    -0.624584    -0.647595    2.374873    -0.621438    0.397574    -2.262093    2.903197    -0.028608    -1.525057    1.390624    -0.098419    3.922871    -3.723059    2.240029    0.000000    0.000000    0.000000    -0.717482    4.706658    -0.556628    2.969489    0.816052    0.075118    -2.667424    -4.908541    -10.759241    0.000000    0.000000    0.000000    
-18.415701    78.039230    -204.226639    -0.079005    -0.571036    10.032166    -0.506918    -9.004391    0.498959    -0.861910    0.200932    0.540319    -1.445897    18.651279    -0.335499    -0.185214    0.140195    -0.408559    12.189939    -1.364879    -7.294993    -20.238426    0.562275    -0.690953    0.413607    -0.436246    1.507903    -1.102166    -0.452610    1.121651    -10.534094    0.804753    -4.420035    15.846996    -0.475672    2.136754    -0.898538    -0.614729    -0.653176    2.417179    -0.610914    0.427522    -2.253922    2.887424    -0.015381    -1.526280    1.403577    -0.145637    3.948812    -3.724541    2.260829    0.000000    0.000000    0.000000    -0.708536    4.697657    -0.565650    2.959967    0.820825    0.075609    -2.184972    -4.862261    -10.749511    0.000000    0.000000    0.000000    
-18.416006    78.040039    -204.223297    -0.072326    -0.585369    10.033567    -0.517796    -8.991287    0.496888    -0.852121    0.202593    0.539018    -1.443204    18.644215    -0.332300    -0.201822    0.153934    -0.407442    12.210980    -1.374472    -7.277781    -20.249937    0.561230    -0.714415    0.392567    -0.430290    1.535821    -1.078966    -0.446024    1.110758    -10.556541    0.788030    -4.413326    15.836631    -0.489603    2.143653    -0.840059    -0.612852    -0.685213    2.341283    -0.609186    0.425517    -2.258932    2.906768    -0.022685    -1.525790    1.400898    -0.138827    3.925075    -3.717903    2.260894    0.000000    0.000000    0.000000    -0.709794    4.718847    -0.586853    2.952793    0.811557    0.101437    -2.195007    -4.851549    -10.746150    0.000000    0.000000    0.000000    
-18.416592    78.039482    -204.226303    -0.073861    -0.577831    10.030037    -0.515332    -8.992188    0.499981    -0.857601    0.194822    0.542022    -1.437256    18.649990    -0.326941    -0.198701    0.149413    -0.401192    12.219172    -1.365438    -7.289909    -20.249762    0.554666    -0.703024    0.402372    -0.439427    1.522468    -1.067202    -0.455491    1.139010    -10.545081    0.787315    -4.412175    15.844414    -0.467150    2.126753    -0.897945    -0.612530    -0.651932    2.401066    -0.608628    0.430741    -2.253169    2.901726    -0.044099    -1.538739    1.392325    -0.113443    3.938259    -3.715479    2.261953    0.000000    0.000000    0.000000    -0.712692    4.704980    -0.580116    2.960439    0.820997    0.084712    -2.665056    -4.911929    -10.739381    0.000000    0.000000    0.000000    
-18.415745    78.040909    -204.224869    -0.068332    -0.581968    10.028854    -0.522338    -8.990096    0.497716    -0.841532    0.203753    0.540227    -1.475233    18.627077    -0.327106    -0.177206    0.179677    -0.398907    12.201502    -1.380975    -7.284296    -20.241581    0.574301    -0.691953    0.412093    -0.439202    1.518527    -1.088539    -0.455635    1.135146    -10.580303    0.797012    -4.414495    15.865549    -0.494167    2.140462    -0.905343    -0.609549    -0.652083    2.374559    -0.606149    0.412726    -2.263381    2.909025    -0.037821    -1.526343    1.392967    -0.120797    3.942766    -3.710278    2.264848    0.000000    0.000000    0.000000    -0.721467    4.714929    -0.561731    2.966765    0.813336    0.077726    -2.678585    -4.904603    -10.747085    0.000000    0.000000    0.000000    
-18.416912    78.040260    -204.224487    -0.070008    -0.586863    10.031949    -0.517841    -8.985835    0.497453    -0.855170    0.207981    0.539616    -1.452669    18.628672    -0.322761    -0.192572    0.172744    -0.396012    12.217309    -1.379346    -7.284921    -20.236202    0.573933    -0.693179    0.415044    -0.443874    1.517408    -1.091532    -0.460265    1.142733    -10.566057    0.773437    -4.407972    15.858484    -0.464280    2.126471    -0.914673    -0.608954    -0.650085    2.391039    -0.605431    0.421506    -2.262955    2.910745    -0.027743    -1.520190    1.388888    -0.109004    3.924773    -3.706496    2.238017    0.000000    0.000000    0.000000    -0.715814    4.720200    -0.566296    2.964974    0.810417    0.082917    -2.189962    -4.859090    -10.754255    0.000000    0.000000    0.000000    
-18.416304    78.041618    -204.225342    -0.068683    -0.577592    10.030203    -0.518702    -8.990167    0.501078    -0.849205    0.199918    0.543434    -1.481133    18.629654    -0.322270    -0.164444    0.174976    -0.392137    12.206309    -1.385377    -7.298984    -20.215294    0.580561    -0.688678    0.393053    -0.443645    1.541778    -1.087209    -0.459753    1.122448    -10.583868    0.798921    -4.421050    15.860128    -0.498589    2.146769    -0.900321    -0.605135    -0.658322    2.359055    -0.601755    0.418590    -2.265811    2.902508    -0.024374    -1.520871    1.393588    -0.131687    3.945261    -3.711820    2.261206    0.000000    0.000000    0.000000    -0.721187    4.710138    -0.572902    2.968455    0.818359    0.103959    -2.176287    -4.857498    -10.769585    0.000000    0.000000    0.000000    
